<?xml version="1.0" encoding="utf-8"?>
<!-- Generator: Adobe Illustrator 20.0.0, SVG Export Plug-In . SVG Version: 6.00 Build 0)  -->
<svg version="1.1" id="Layer_1" xmlns="http://www.w3.org/2000/svg" xmlns:xlink="http://www.w3.org/1999/xlink" x="0px" y="0px"
	 viewBox="0 0 40.32 5.468" style="enable-background:new 0 0 40.32 5.468;" xml:space="preserve">
<g>
	<g>
		<path style="fill:#210800;" d="M2.287,1.245C2.105,0.93,1.887,0.749,1.5,0.749c-0.405,0-0.756,0.29-0.756,0.708
			c0,0.393,0.405,0.574,0.714,0.714L1.76,2.304c0.593,0.26,1.095,0.556,1.095,1.282c0,0.799-0.641,1.409-1.434,1.409
			C0.69,4.996,0.145,4.523,0,3.816l0.496-0.139c0.066,0.465,0.423,0.847,0.913,0.847c0.49,0,0.938-0.375,0.938-0.889
			c0-0.533-0.417-0.714-0.841-0.908L1.228,2.606C0.695,2.364,0.236,2.092,0.236,1.439c0-0.708,0.599-1.162,1.276-1.162
			c0.508,0,0.937,0.26,1.179,0.708L2.287,1.245z"/>
		<path style="fill:#210800;" d="M5.063,3.072c0,0.339-0.012,0.726,0.199,1.016c0.2,0.278,0.587,0.435,0.919,0.435
			c0.327,0,0.684-0.151,0.895-0.405c0.242-0.29,0.224-0.689,0.224-1.046V0.356h0.508v2.855c0,0.496-0.036,0.889-0.399,1.265
			c-0.315,0.339-0.768,0.52-1.228,0.52c-0.429,0-0.871-0.163-1.179-0.466C4.603,4.149,4.555,3.731,4.555,3.211V0.356h0.508V3.072z"
			/>
		<path style="fill:#210800;" d="M9.587,0.162l3.557,3.726V0.356h0.508v4.767l-3.557-3.72v3.514H9.587V0.162z"/>
		<path style="fill:#210800;" d="M16.078,0.827h0.188c0.593,0,1.192,0.054,1.192,0.799c0,0.653-0.478,0.823-1.04,0.823h-0.339V0.827
			z M16.078,2.921h0.369c0.381,0,0.775-0.048,1.083-0.302c0.284-0.236,0.435-0.611,0.435-0.98c0-0.405-0.175-0.804-0.514-1.04
			c-0.333-0.23-0.738-0.242-1.131-0.242h-0.75v4.561h0.508V2.921z"/>
		<path style="fill:#210800;" d="M26.161,3.773l1.476-3.654l1.475,3.654l1.198-3.418h0.55l-1.748,4.797l-1.475-3.672l-1.476,3.672
			l-1.748-4.797h0.55L26.161,3.773z"/>
		<path style="fill:#210800;" d="M31.998,0.356h2.365v0.472h-1.857v1.355h1.803v0.472h-1.803v1.79h1.857v0.472h-2.365V0.356z"/>
		<path style="fill:#210800;" d="M36.583,0.827h0.151c0.611,0,1.161,0.073,1.161,0.823c0,0.708-0.581,0.817-1.155,0.817h-0.157
			V0.827z M36.583,2.915h0.127l1.379,2.002h0.623L37.26,2.872c0.702-0.06,1.144-0.556,1.144-1.258c0-1.028-0.804-1.258-1.669-1.258
			h-0.659v4.561h0.508V2.915z"/>
	</g>
</g>
<g>
	<g>
		<path style="fill:#210800;" d="M2.287,1.245C2.105,0.93,1.887,0.749,1.5,0.749c-0.405,0-0.756,0.29-0.756,0.708
			c0,0.393,0.405,0.574,0.714,0.714L1.76,2.304c0.593,0.26,1.095,0.556,1.095,1.282c0,0.799-0.641,1.409-1.434,1.409
			C0.69,4.996,0.145,4.523,0,3.816l0.496-0.139c0.066,0.465,0.423,0.847,0.913,0.847c0.49,0,0.938-0.375,0.938-0.889
			c0-0.533-0.417-0.714-0.841-0.908L1.228,2.606C0.695,2.364,0.236,2.092,0.236,1.439c0-0.708,0.599-1.162,1.276-1.162
			c0.508,0,0.937,0.26,1.179,0.708L2.287,1.245z"/>
		<path style="fill:#210800;" d="M5.063,3.072c0,0.339-0.012,0.726,0.199,1.016c0.2,0.278,0.587,0.435,0.919,0.435
			c0.327,0,0.684-0.151,0.895-0.405c0.242-0.29,0.224-0.689,0.224-1.046V0.356h0.508v2.855c0,0.496-0.036,0.889-0.399,1.265
			c-0.315,0.339-0.768,0.52-1.228,0.52c-0.429,0-0.871-0.163-1.179-0.466C4.603,4.149,4.555,3.731,4.555,3.211V0.356h0.508V3.072z"
			/>
		<path style="fill:#210800;" d="M9.587,0.162l3.557,3.726V0.356h0.508v4.767l-3.557-3.72v3.514H9.587V0.162z"/>
		<path style="fill:#210800;" d="M16.078,0.827h0.188c0.593,0,1.192,0.054,1.192,0.799c0,0.653-0.478,0.823-1.04,0.823h-0.339V0.827
			z M16.078,2.921h0.369c0.381,0,0.775-0.048,1.083-0.302c0.284-0.236,0.435-0.611,0.435-0.98c0-0.405-0.175-0.804-0.514-1.04
			c-0.333-0.23-0.738-0.242-1.131-0.242h-0.75v4.561h0.508V2.921z"/>
		<path style="fill:#210800;" d="M26.161,3.773l1.476-3.654l1.475,3.654l1.198-3.418h0.55l-1.748,4.797l-1.475-3.672l-1.476,3.672
			l-1.748-4.797h0.55L26.161,3.773z"/>
		<path style="fill:#210800;" d="M31.998,0.356h2.365v0.472h-1.857v1.355h1.803v0.472h-1.803v1.79h1.857v0.472h-2.365V0.356z"/>
		<path style="fill:#210800;" d="M36.583,0.827h0.151c0.611,0,1.161,0.073,1.161,0.823c0,0.708-0.581,0.817-1.155,0.817h-0.157
			V0.827z M36.583,2.915h0.127l1.379,2.002h0.623L37.26,2.872c0.702-0.06,1.144-0.556,1.144-1.258c0-1.028-0.804-1.258-1.669-1.258
			h-0.659v4.561h0.508V2.915z"/>
	</g>
</g>
<path style="fill:#F79320;" d="M23.714,2.643c0,1.33-1.054,2.34-2.392,2.34c-1.309,0-2.363-1.058-2.363-2.33
	c0-1.292,1.044-2.35,2.363-2.35C22.66,0.303,23.714,1.313,23.714,2.643z M19.494,2.653c0,0.97,0.777,1.829,1.798,1.829
	c1.058,0,1.882-0.794,1.882-1.829c0-1.053-0.815-1.847-1.882-1.847C20.262,0.806,19.494,1.665,19.494,2.653z"/>
<g>
	<path style="fill:#231F20;" d="M38.924,1.054c0-0.124,0.031-0.24,0.093-0.348c0.062-0.108,0.147-0.194,0.255-0.256
		c0.108-0.062,0.225-0.094,0.35-0.094c0.124,0,0.24,0.031,0.348,0.093c0.108,0.062,0.194,0.147,0.256,0.255
		c0.062,0.108,0.094,0.225,0.094,0.35c0,0.122-0.03,0.236-0.09,0.343c-0.06,0.107-0.144,0.193-0.252,0.257
		c-0.108,0.064-0.227,0.097-0.355,0.097c-0.128,0-0.246-0.032-0.355-0.096c-0.108-0.064-0.193-0.15-0.253-0.257
		C38.954,1.291,38.924,1.176,38.924,1.054z M39.01,1.054c0,0.11,0.027,0.212,0.082,0.306s0.129,0.168,0.223,0.223
		c0.094,0.055,0.196,0.083,0.306,0.083c0.11,0,0.212-0.027,0.306-0.082s0.168-0.129,0.223-0.223
		c0.055-0.094,0.083-0.196,0.083-0.306c0-0.108-0.026-0.208-0.079-0.302c-0.053-0.093-0.127-0.169-0.222-0.226
		c-0.095-0.057-0.198-0.085-0.31-0.085c-0.109,0-0.211,0.027-0.305,0.082c-0.094,0.055-0.169,0.13-0.224,0.225
		C39.038,0.844,39.01,0.945,39.01,1.054z M39.871,0.88c0,0.049-0.012,0.092-0.036,0.129c-0.024,0.037-0.058,0.067-0.103,0.088
		l0.22,0.365H39.84l-0.195-0.334h-0.156v0.334h-0.094V0.645h0.196c0.088,0,0.157,0.019,0.206,0.058
		C39.846,0.741,39.871,0.8,39.871,0.88z M39.489,1.054h0.104c0.056,0,0.101-0.014,0.133-0.043c0.032-0.029,0.048-0.071,0.048-0.126
		c0-0.106-0.061-0.16-0.183-0.16h-0.102V1.054z"/>
</g>
</svg>
