<?xml version="1.0" encoding="UTF-8"?>
<svg xmlns="http://www.w3.org/2000/svg" xmlns:xlink="http://www.w3.org/1999/xlink" width="612pt" height="792pt" viewBox="0 0 612 792" version="1.1">
<g id="surface1">
<path style=" stroke:none;fill-rule:evenodd;fill:rgb(0%,0%,0%);fill-opacity:1;" d="M 337.644531 401.242188 C 339.925781 395.585938 342.207031 389.925781 344.496094 384.273438 C 346.75 389.835938 348.992188 395.40625 351.238281 400.972656 C 351.277344 401.070313 351.316406 401.171875 351.355469 401.273438 C 353.199219 395.980469 355.066406 390.695313 356.90625 385.402344 C 357.769531 385.382813 358.632813 385.386719 359.496094 385.398438 C 356.859375 392.621094 354.234375 399.847656 351.601563 407.070313 C 351.519531 407.289063 351.449219 407.515625 351.351563 407.726563 C 350.832031 406.433594 350.316406 405.144531 349.792969 403.855469 C 349.636719 403.476563 349.503906 403.09375 349.332031 402.722656 C 349.34375 402.691406 349.355469 402.660156 349.367188 402.628906 C 349.304688 402.597656 349.257813 402.542969 349.242188 402.476563 C 347.800781 398.878906 346.351563 395.28125 344.90625 391.683594 C 344.765625 391.351563 344.652344 391.003906 344.488281 390.679688 C 343.113281 394.101563 341.738281 397.523438 340.363281 400.945313 C 339.449219 403.203125 338.558594 405.472656 337.628906 407.726563 C 334.910156 400.285156 332.210938 392.835938 329.488281 385.394531 C 330.355469 385.394531 331.222656 385.375 332.089844 385.40625 C 332.785156 387.453125 333.519531 389.492188 334.226563 391.539063 C 335.277344 394.527344 336.324219 397.511719 337.367188 400.5 C 337.460938 400.746094 337.53125 401.003906 337.644531 401.242188 "/>
<path style=" stroke:none;fill-rule:evenodd;fill:rgb(0%,0%,0%);fill-opacity:1;" d="M 260.5625 384.5 C 260.648438 384.554688 260.722656 384.628906 260.792969 384.703125 C 261.863281 385.832031 262.941406 386.949219 264.007813 388.078125 C 268.375 392.640625 272.722656 397.222656 277.089844 401.78125 C 277.105469 396.320313 277.089844 390.859375 277.097656 385.398438 C 277.894531 385.378906 278.691406 385.398438 279.484375 385.390625 C 279.496094 391.515625 279.488281 397.636719 279.488281 403.761719 C 279.488281 405.03125 279.496094 406.300781 279.484375 407.570313 C 279.171875 407.300781 278.90625 406.976563 278.613281 406.683594 C 278.289063 406.347656 277.96875 406.007813 277.644531 405.675781 C 273.210938 401.019531 268.757813 396.378906 264.320313 391.722656 C 263.859375 391.261719 263.429688 390.765625 262.953125 390.320313 C 262.953125 395.753906 262.953125 401.183594 262.953125 406.617188 C 262.152344 406.617188 261.355469 406.621094 260.558594 406.613281 C 260.5625 399.242188 260.554688 391.871094 260.5625 384.5 "/>
<path style=" stroke:none;fill-rule:evenodd;fill:rgb(0%,0%,0%);fill-opacity:1;" d="M 222.273438 385.058594 C 223.714844 384.886719 225.222656 385.203125 226.4375 386.003906 C 227.316406 386.582031 228.03125 387.394531 228.527344 388.320313 C 227.902344 388.738281 227.261719 389.128906 226.640625 389.546875 C 226.257813 388.9375 225.84375 388.324219 225.253906 387.90625 C 224.546875 387.375 223.632813 387.199219 222.765625 387.242188 C 221.605469 387.289063 220.453125 387.921875 219.878906 388.945313 C 219.480469 389.664063 219.328125 390.5625 219.617188 391.347656 C 219.839844 391.960938 220.320313 392.433594 220.847656 392.800781 C 221.671875 393.367188 222.609375 393.742188 223.519531 394.148438 C 225.078125 394.839844 226.726563 395.515625 227.925781 396.777344 C 228.53125 397.421875 228.96875 398.222656 229.148438 399.089844 C 229.457031 400.554688 229.242188 402.125 228.554688 403.453125 C 228.09375 404.324219 227.445313 405.097656 226.648438 405.679688 C 226.609375 405.664063 226.574219 405.65625 226.535156 405.644531 L 226.636719 405.699219 C 225.867188 406.234375 225.003906 406.636719 224.085938 406.832031 C 222.914063 407.082031 221.679688 407.03125 220.527344 406.691406 C 219.414063 406.359375 218.390625 405.710938 217.621094 404.835938 C 216.796875 403.921875 216.269531 402.769531 216 401.578125 L 216 401.476563 C 216.578125 401.3125 217.15625 401.15625 217.734375 400.992188 C 217.929688 400.933594 218.121094 400.875 218.320313 400.847656 C 218.519531 402.355469 219.472656 403.796875 220.886719 404.421875 C 222.683594 405.230469 224.972656 404.578125 226.125 402.992188 C 226.65625 402.285156 226.933594 401.394531 226.894531 400.511719 C 226.894531 399.632813 226.535156 398.757813 225.898438 398.148438 C 225.289063 397.546875 224.515625 397.148438 223.746094 396.78125 C 222.691406 396.273438 221.589844 395.867188 220.554688 395.3125 C 219.597656 394.816406 218.664063 394.210938 218 393.34375 C 217.371094 392.523438 217.070313 391.476563 217.097656 390.449219 C 217.058594 389.085938 217.605469 387.71875 218.582031 386.761719 C 219.558594 385.78125 220.902344 385.203125 222.273438 385.058594 "/>
<path style=" stroke:none;fill-rule:evenodd;fill:rgb(0%,0%,0%);fill-opacity:1;" d="M 237.175781 385.390625 C 237.964844 385.398438 238.757813 385.382813 239.550781 385.398438 C 239.542969 388.660156 239.546875 391.917969 239.546875 395.179688 C 239.550781 396.535156 239.535156 397.890625 239.558594 399.246094 C 239.585938 400.320313 239.703125 401.433594 240.242188 402.382813 C 240.765625 403.320313 241.683594 403.980469 242.671875 404.367188 C 243.671875 404.757813 244.777344 404.878906 245.832031 404.652344 C 246.875 404.429688 247.871094 403.9375 248.632813 403.179688 C 249.148438 402.671875 249.503906 402.015625 249.683594 401.316406 C 249.84375 400.730469 249.890625 400.128906 249.925781 399.523438 C 249.933594 394.816406 249.925781 390.105469 249.933594 385.394531 C 250.730469 385.390625 251.527344 385.382813 252.320313 385.398438 C 252.3125 389.945313 252.320313 394.488281 252.316406 399.03125 C 252.296875 399.894531 252.269531 400.769531 252.074219 401.613281 C 251.835938 402.714844 251.273438 403.734375 250.488281 404.535156 C 249.769531 405.320313 248.871094 405.9375 247.894531 406.351563 C 245.976563 407.171875 243.746094 407.195313 241.800781 406.4375 C 240.828125 406.066406 239.929688 405.496094 239.191406 404.761719 C 238.496094 404.09375 237.941406 403.273438 237.628906 402.359375 C 237.296875 401.433594 237.210938 400.445313 237.171875 399.46875 C 237.160156 396.425781 237.171875 393.382813 237.167969 390.339844 C 237.171875 388.691406 237.160156 387.039063 237.175781 385.390625 "/>
<path style=" stroke:none;fill-rule:evenodd;fill:rgb(0%,0%,0%);fill-opacity:1;" d="M 288.371094 385.394531 C 289.929688 385.390625 291.480469 385.386719 293.035156 385.398438 C 294.238281 385.441406 295.46875 385.601563 296.550781 386.15625 C 297.484375 386.625 298.246094 387.398438 298.757813 388.300781 C 299.882813 390.3125 299.785156 392.953125 298.476563 394.855469 C 297.894531 395.726563 297.03125 396.398438 296.054688 396.78125 C 294.957031 397.210938 293.765625 397.335938 292.59375 397.328125 C 291.984375 397.335938 291.378906 397.328125 290.773438 397.332031 C 290.761719 400.425781 290.769531 403.519531 290.769531 406.617188 C 289.96875 406.617188 289.171875 406.621094 288.371094 406.613281 C 288.375 399.542969 288.371094 392.46875 288.371094 385.394531 Z M 290.769531 387.589844 C 290.765625 390.101563 290.765625 392.613281 290.769531 395.125 C 292.023438 395.113281 293.304688 395.199219 294.53125 394.863281 C 295.386719 394.636719 296.214844 394.148438 296.664063 393.363281 C 297.011719 392.769531 297.136719 392.070313 297.15625 391.390625 C 297.152344 390.6875 297.0625 389.964844 296.714844 389.339844 C 296.363281 388.675781 295.703125 388.222656 295 387.988281 C 294.28125 387.742188 293.519531 387.652344 292.761719 387.628906 C 292.097656 387.574219 291.433594 387.59375 290.769531 387.589844 "/>
<path style=" stroke:none;fill-rule:evenodd;fill:rgb(0%,0%,0%);fill-opacity:1;" d="M 364.757813 385.398438 C 368.429688 385.378906 372.105469 385.402344 375.777344 385.386719 C 375.78125 386.121094 375.78125 386.855469 375.777344 387.585938 C 372.898438 387.597656 370.019531 387.582031 367.144531 387.597656 C 367.15625 389.6875 367.144531 391.78125 367.148438 393.871094 C 369.9375 393.882813 372.730469 393.878906 375.523438 393.875 C 375.535156 394.613281 375.519531 395.355469 375.53125 396.097656 C 372.734375 396.101563 369.941406 396.101563 367.148438 396.097656 C 367.152344 398.867188 367.144531 401.640625 367.148438 404.414063 C 370.027344 404.410156 372.902344 404.40625 375.78125 404.414063 C 375.78125 405.148438 375.78125 405.882813 375.78125 406.617188 C 372.105469 406.613281 368.429688 406.621094 364.753906 406.613281 C 364.757813 399.542969 364.753906 392.46875 364.757813 385.398438 "/>
<path style=" stroke:none;fill-rule:evenodd;fill:rgb(0%,0%,0%);fill-opacity:1;" d="M 383.714844 385.390625 C 385.03125 385.394531 386.347656 385.382813 387.660156 385.398438 C 389.023438 385.464844 390.410156 385.652344 391.65625 386.234375 C 392.527344 386.636719 393.3125 387.269531 393.800781 388.105469 C 394.390625 389.070313 394.574219 390.222656 394.570313 391.335938 C 394.546875 392.535156 394.25 393.757813 393.558594 394.753906 C 393.015625 395.550781 392.246094 396.183594 391.367188 396.574219 C 390.707031 396.878906 389.988281 397.027344 389.269531 397.117188 C 391.507813 400.285156 393.765625 403.445313 396 406.617188 C 395.03125 406.617188 394.0625 406.621094 393.097656 406.613281 C 392.496094 405.789063 391.925781 404.929688 391.34375 404.089844 C 389.78125 401.835938 388.234375 399.566406 386.671875 397.3125 C 386.480469 397.316406 386.292969 397.3125 386.105469 397.3125 C 386.109375 400.414063 386.105469 403.515625 386.105469 406.617188 C 385.308594 406.617188 384.507813 406.617188 383.710938 406.617188 C 383.714844 399.539063 383.703125 392.46875 383.714844 385.390625 Z M 386.101563 387.59375 C 386.113281 390.128906 386.105469 392.660156 386.105469 395.195313 C 387.078125 395.199219 388.0625 395.21875 389.027344 395.027344 C 389.921875 394.863281 390.835938 394.507813 391.441406 393.796875 C 391.910156 393.230469 392.125 392.496094 392.171875 391.769531 C 392.183594 391.277344 392.183594 390.777344 392.074219 390.296875 C 391.9375 389.621094 391.609375 388.964844 391.058594 388.539063 C 390.335938 387.953125 389.390625 387.761719 388.488281 387.664063 C 387.695313 387.605469 386.898438 387.578125 386.101563 387.59375 "/>
<path style=" stroke:none;fill-rule:evenodd;fill:rgb(96.875%,57.226563%,11.767578%);fill-opacity:1;" d="M 312.921875 385.359375 C 313.894531 385.117188 314.90625 385.128906 315.902344 385.152344 C 316.832031 385.21875 317.757813 385.375 318.648438 385.664063 C 318.941406 385.726563 319.21875 385.851563 319.492188 385.972656 C 320.707031 386.414063 321.800781 387.140625 322.765625 387.996094 C 323.128906 388.382813 323.546875 388.71875 323.855469 389.15625 C 324.113281 389.476563 324.363281 389.804688 324.574219 390.15625 C 324.867188 390.546875 325.0625 390.996094 325.273438 391.429688 C 325.367188 391.636719 325.480469 391.839844 325.519531 392.066406 C 325.539063 392.089844 325.574219 392.132813 325.589844 392.15625 C 325.796875 392.769531 325.964844 393.390625 326.09375 394.023438 C 326.144531 394.554688 326.25 395.082031 326.265625 395.617188 C 326.3125 397.488281 325.941406 399.390625 325.070313 401.054688 C 324.816406 401.597656 324.46875 402.089844 324.144531 402.589844 C 323.859375 402.980469 323.496094 403.300781 323.1875 403.664063 C 322.464844 404.390625 321.644531 405.03125 320.738281 405.515625 C 320.488281 405.6875 320.191406 405.785156 319.917969 405.914063 C 318.878906 406.398438 317.757813 406.695313 316.621094 406.828125 C 315.894531 406.957031 315.152344 406.925781 314.421875 406.914063 C 312.921875 406.789063 311.4375 406.410156 310.097656 405.71875 C 309.820313 405.605469 309.589844 405.414063 309.324219 405.28125 C 308.394531 404.695313 307.53125 403.992188 306.820313 403.15625 C 306.410156 402.710938 306.082031 402.203125 305.734375 401.71875 C 305.214844 400.800781 304.738281 399.839844 304.492188 398.8125 C 304.394531 398.449219 304.320313 398.078125 304.261719 397.707031 L 304.234375 397.660156 C 304.230469 397.417969 304.160156 397.183594 304.164063 396.9375 C 304.171875 396.519531 304.074219 396.097656 304.140625 395.675781 C 304.179688 395.4375 304.152344 395.195313 304.179688 394.957031 C 304.257813 394.402344 304.347656 393.847656 304.488281 393.304688 C 304.578125 393.03125 304.605469 392.742188 304.746094 392.488281 C 305.085938 391.402344 305.675781 390.414063 306.324219 389.492188 C 306.507813 389.207031 306.769531 388.984375 306.953125 388.699219 C 307.097656 388.609375 307.191406 388.46875 307.304688 388.347656 C 307.605469 388.097656 307.875 387.8125 308.171875 387.554688 C 308.527344 387.328125 308.847656 387.054688 309.203125 386.832031 C 310.085938 386.269531 311.054688 385.851563 312.054688 385.5625 C 312.335938 385.46875 312.628906 385.414063 312.921875 385.359375 Z M 313.867188 387.5625 C 312.53125 387.742188 311.253906 388.269531 310.160156 389.050781 C 309.449219 389.578125 308.832031 390.222656 308.296875 390.925781 C 307.25 392.382813 306.664063 394.15625 306.636719 395.949219 C 306.613281 398.195313 307.496094 400.457031 309.082031 402.058594 C 310.601563 403.640625 312.769531 404.605469 314.972656 404.566406 C 315.40625 404.558594 315.839844 404.574219 316.265625 404.488281 C 316.527344 404.433594 316.796875 404.433594 317.054688 404.359375 C 318.441406 404.03125 319.769531 403.402344 320.851563 402.472656 C 321.617188 401.800781 322.28125 401.007813 322.742188 400.09375 C 322.75 400.125 322.765625 400.191406 322.773438 400.222656 C 322.78125 400.152344 322.789063 400.082031 322.804688 400.011719 C 322.949219 399.753906 323.058594 399.476563 323.160156 399.195313 C 323.261719 399.003906 323.3125 398.792969 323.371094 398.585938 C 323.523438 398.027344 323.675781 397.464844 323.703125 396.882813 C 323.777344 396.28125 323.746094 395.671875 323.6875 395.070313 C 323.464844 392.828125 322.304688 390.683594 320.507813 389.320313 C 318.65625 387.855469 316.191406 387.269531 313.867188 387.5625 "/>
</g>
</svg>
